<svg width="248" height="221" viewBox="0 0 248 221" fill="none" xmlns="http://www.w3.org/2000/svg">
<g id="undraw_mail_sent_re_0ofv 1" clip-path="url(#clip0_58_8257)">
<path id="Vector" d="M244.936 84.5149C244.848 84.5149 244.762 84.4879 244.69 84.4375L125.24 1.24913C124.876 0.997155 124.444 0.862493 124.002 0.863247C123.56 0.864002 123.128 1.00013 122.766 1.25335L4.17616 84.4366C4.08236 84.5024 3.96627 84.5283 3.85342 84.5085C3.74058 84.4886 3.64021 84.4248 3.57442 84.331C3.50863 84.2372 3.48279 84.1211 3.5026 84.0083C3.5224 83.8954 3.58623 83.7951 3.68003 83.7293L122.27 0.546007C122.777 0.191556 123.381 0.00102175 124.001 4.09783e-06C124.62 -0.00101355 125.225 0.187533 125.734 0.540313L245.183 83.7284C245.259 83.781 245.316 83.8563 245.345 83.9434C245.375 84.0304 245.376 84.1246 245.349 84.2124C245.321 84.3001 245.266 84.3768 245.192 84.4312C245.118 84.4856 245.028 84.5149 244.936 84.5149Z" fill="#1C2253"/>
<path id="Vector_2" d="M10.9531 87.4633L124.12 3.59277L238.146 93.4311L129.951 157.57L71.2104 144.181L10.9531 87.4633Z" fill="#E6E6E6"/>
<path id="Vector_3" d="M76.169 197.187H20.2618C19.9185 197.187 19.5785 197.12 19.2612 196.989C18.9439 196.858 18.6556 196.666 18.4127 196.423C18.1698 196.18 17.9771 195.892 17.8456 195.575C17.7142 195.258 17.6465 194.918 17.6465 194.575C17.6465 194.232 17.7142 193.892 17.8456 193.575C17.9771 193.257 18.1698 192.969 18.4127 192.727C18.6556 192.484 18.9439 192.292 19.2612 192.161C19.5785 192.03 19.9185 191.962 20.2618 191.963H76.169C76.5123 191.962 76.8523 192.03 77.1696 192.161C77.4869 192.292 77.7752 192.484 78.0181 192.727C78.261 192.969 78.4537 193.257 78.5852 193.575C78.7166 193.892 78.7843 194.232 78.7843 194.575C78.7843 194.918 78.7166 195.258 78.5852 195.575C78.4537 195.892 78.261 196.18 78.0181 196.423C77.7752 196.666 77.4869 196.858 77.1696 196.989C76.8523 197.12 76.5123 197.187 76.169 197.187Z" fill="#6070FF"/>
<path id="Vector_4" d="M40.3201 185.957H20.2618C19.9185 185.958 19.5785 185.891 19.2612 185.759C18.9439 185.628 18.6556 185.436 18.4127 185.193C18.1698 184.951 17.9771 184.663 17.8456 184.346C17.7142 184.029 17.6465 183.689 17.6465 183.345C17.6465 183.002 17.7142 182.662 17.8456 182.345C17.9771 182.028 18.1698 181.74 18.4127 181.497C18.6556 181.255 18.9439 181.062 19.2612 180.931C19.5785 180.8 19.9185 180.733 20.2618 180.733H40.3201C40.6633 180.733 41.0034 180.8 41.3206 180.931C41.6379 181.062 41.9263 181.255 42.1691 181.497C42.412 181.74 42.6047 182.028 42.7362 182.345C42.8677 182.662 42.9354 183.002 42.9354 183.345C42.9354 183.689 42.8677 184.029 42.7362 184.346C42.6047 184.663 42.412 184.951 42.1691 185.193C41.9263 185.436 41.6379 185.628 41.3206 185.759C41.0034 185.891 40.6633 185.958 40.3201 185.957Z" fill="#6070FF"/>
<path id="Vector_5" d="M125.71 134.179C125.285 134.179 124.865 134.097 124.471 133.936L54.6777 104.977V14.3291C54.6787 13.5275 54.9975 12.759 55.5643 12.1922C56.1311 11.6254 56.8996 11.3066 57.7011 11.3057H191.595C192.396 11.3066 193.165 11.6254 193.732 12.1922C194.298 12.759 194.617 13.5275 194.618 14.3291V105.04L194.487 105.096L126.987 133.922C126.583 134.092 126.149 134.179 125.71 134.179Z" fill="white"/>
<path id="Vector_6" d="M125.71 134.394C125.256 134.394 124.808 134.307 124.388 134.135L54.4609 105.12V14.3282C54.4619 13.4694 54.8035 12.646 55.4108 12.0387C56.0181 11.4314 56.8415 11.0898 57.7003 11.0889H191.594C192.453 11.0898 193.276 11.4314 193.883 12.0387C194.491 12.646 194.832 13.4694 194.833 14.3282V105.182L127.071 134.12C126.64 134.301 126.177 134.394 125.71 134.394ZM55.3247 104.543L124.718 133.337C125.365 133.599 126.09 133.595 126.734 133.325L193.969 104.612V14.3282C193.969 13.6984 193.718 13.0946 193.273 12.6493C192.828 12.204 192.224 11.9534 191.594 11.9527H57.7003C57.0705 11.9534 56.4667 12.204 56.0214 12.6493C55.576 13.0946 55.3255 13.6984 55.3248 14.3282L55.3247 104.543Z" fill="#1C2253"/>
<path id="Vector_7" d="M244.072 83.6514H243.986L194.402 104.824L126.561 133.792C126.296 133.904 126.012 133.962 125.724 133.964C125.437 133.965 125.152 133.91 124.885 133.801L54.8937 104.763L4.09178 83.6859L4.01417 83.6514H3.9277C3.12612 83.6523 2.35762 83.9711 1.79081 84.5379C1.22401 85.1047 0.905186 85.8732 0.904297 86.6748V217.977C0.905187 218.778 1.22401 219.547 1.79081 220.114C2.35762 220.681 3.12612 220.999 3.9277 221H244.072C244.874 220.999 245.642 220.681 246.209 220.114C246.776 219.547 247.095 218.778 247.096 217.977V86.6748C247.095 85.8732 246.776 85.1047 246.209 84.5379C245.642 83.9711 244.874 83.6523 244.072 83.6514ZM246.232 217.977C246.232 218.55 246.004 219.099 245.599 219.504C245.194 219.909 244.645 220.136 244.072 220.136H3.9277C3.35502 220.136 2.80586 219.909 2.40091 219.504C1.99596 219.099 1.76836 218.55 1.76813 217.977V86.6748C1.76891 86.1163 1.98554 85.5798 2.37271 85.1773C2.75989 84.7748 3.28765 84.5376 3.84566 84.5152L54.8937 105.696L124.553 134.6C125.307 134.907 126.152 134.902 126.903 134.587L194.402 105.761L244.159 84.5152C244.716 84.5393 245.242 84.7771 245.628 85.1794C246.014 85.5816 246.231 86.1172 246.232 86.6748V217.977Z" fill="#1C2253"/>
<path id="Vector_8" d="M125.013 108.474C122.436 108.479 119.928 107.645 117.866 106.1L117.738 106.004L90.8253 85.3983C89.5789 84.4433 88.5328 83.2522 87.7468 81.8929C86.9607 80.5337 86.4501 79.0329 86.244 77.4762C86.038 75.9196 86.1405 74.3377 86.5459 72.8207C86.9512 71.3037 87.6513 69.8814 88.6063 68.635C89.5613 67.3886 90.7525 66.3425 92.1117 65.5565C93.471 64.7704 94.9718 64.2598 96.5284 64.0537C98.085 63.8477 99.667 63.9502 101.184 64.3555C102.701 64.7609 104.123 65.461 105.37 66.416L122.802 79.7828L163.997 26.0583C164.952 24.8123 166.144 23.7666 167.504 22.981C168.863 22.1954 170.364 21.6853 171.921 21.4798C173.477 21.2743 175.059 21.3774 176.576 21.7833C178.093 22.1892 179.515 22.8899 180.761 23.8454L180.505 24.1932L180.768 23.8505C183.281 25.7822 184.926 28.6321 185.341 31.7749C185.755 34.9177 184.907 38.0968 182.981 40.6146L134.525 103.807C133.405 105.264 131.963 106.442 130.314 107.251C128.664 108.061 126.85 108.479 125.013 108.474Z" fill="#6070FF"/>
</g>
<defs>
<clipPath id="clip0_58_8257">
<rect width="246.192" height="221" fill="white" transform="translate(0.904297)"/>
</clipPath>
</defs>
</svg>
